<?xml version="1.0" encoding="utf-8"?>
<!-- Generator: Adobe Illustrator 17.0.0, SVG Export Plug-In . SVG Version: 6.00 Build 0)  -->
<!DOCTYPE svg PUBLIC "-//W3C//DTD SVG 1.1//EN" "http://www.w3.org/Graphics/SVG/1.1/DTD/svg11.dtd">
<svg version="1.1" id="Layer_1" xmlns="http://www.w3.org/2000/svg" xmlns:xlink="http://www.w3.org/1999/xlink" x="0px" y="0px"
	 width="123px" height="27px" viewBox="0 0 123 27" enable-background="new 0 0 123 27" xml:space="preserve">
<circle fill="#FFFFFF" cx="108.874" cy="13.936" r="12.531"/>
<g>
	<g>
		<path fill="#FFFFFF" d="M41.138,15.375c0,0.922-0.377,1.71-1.133,2.362c-0.756,0.649-1.668,0.976-2.738,0.976
			c-1,0-1.852-0.306-2.553-0.917c-0.701-0.611-1.051-1.351-1.051-2.219c0-0.923,0.375-1.729,1.125-2.419
			c0.75-0.689,1.625-1.031,2.625-1.031c1.098,0,1.992,0.301,2.685,0.904C40.79,13.635,41.138,14.417,41.138,15.375z M35.767,15.493
			c0,0.44,0.156,0.807,0.469,1.099s0.699,0.438,1.162,0.438c0.451,0,0.838-0.159,1.166-0.479c0.324-0.319,0.488-0.697,0.488-1.131
			c0-0.468-0.154-0.851-0.461-1.144c-0.307-0.291-0.705-0.438-1.193-0.438c-0.451,0-0.838,0.163-1.154,0.484
			C35.925,14.646,35.767,15.036,35.767,15.493z"/>
		<path fill="#FFFFFF" d="M43.37,17.873l-0.582,3.557h-1.986l1.459-9.169h2.027l-0.074,0.45c0.391-0.211,0.721-0.36,0.99-0.45
			c0.268-0.09,0.59-0.134,0.965-0.134c0.754,0,1.379,0.278,1.873,0.838c0.494,0.558,0.74,1.274,0.74,2.149
			c0,1.003-0.326,1.855-0.98,2.56c-0.652,0.704-1.434,1.054-2.342,1.054C44.778,18.728,44.083,18.443,43.37,17.873z M45.079,17.058
			c0.484,0,0.887-0.174,1.209-0.522c0.32-0.349,0.48-0.789,0.48-1.317c0-0.474-0.137-0.841-0.412-1.099
			c-0.273-0.256-0.662-0.385-1.162-0.385c-0.412,0-0.785,0.193-1.113,0.581c-0.33,0.386-0.494,0.827-0.494,1.32
			c0,0.405,0.139,0.743,0.416,1.015c0.277,0.271,0.621,0.407,1.027,0.407H45.079z"/>
		<path fill="#FFFFFF" d="M50.655,9.992h1.986l-0.361,2.269h0.928l-0.287,1.827h-0.9l-0.75,4.505h-1.984l0.701-4.505h-0.75
			l0.287-1.827h0.77L50.655,9.992z"/>
		<path fill="#FFFFFF" d="M53.54,12.261h1.852l1.188,3.375l2.168-3.375h2.088l-5.941,9.169h-2.039l2.502-3.892L53.54,12.261z"/>
		<path fill="#FFFFFF" d="M63.323,12.261l-0.117,0.86c0.662-0.664,1.375-0.994,2.135-0.994c0.463,0,0.822,0.113,1.084,0.343
			c0.262,0.229,0.463,0.59,0.604,1.079c0.734-0.949,1.541-1.422,2.42-1.422c1.19,0,1.783,0.725,1.783,2.177
			c0,0.279-0.016,0.534-0.049,0.765l-0.516,3.524h-2l0.547-3.614c0.031-0.214,0.049-0.404,0.049-0.569
			c0-0.584-0.262-0.875-0.781-0.875c-0.344,0-0.645,0.137-0.904,0.415c-0.26,0.276-0.426,0.625-0.496,1.044l-0.604,3.6h-1.984
			l0.578-3.713c0.023-0.179,0.033-0.316,0.033-0.412c0-0.622-0.254-0.934-0.766-0.934c-0.332,0-0.637,0.132-0.916,0.399
			c-0.279,0.268-0.453,0.604-0.518,1.015l-0.568,3.645h-2l0.986-6.332H63.323z"/>
		<path fill="#FFFFFF" d="M71.673,12.261h1.852l1.189,3.375l2.168-3.375h2.086l-5.939,9.169h-2.041l2.502-3.892L71.673,12.261z"/>
		<path fill="#FFFFFF" d="M79.399,12.261h5.959l-3.785,4.813h2.953l-0.27,1.519h-6.088l3.818-4.843h-2.832L79.399,12.261z"/>
		<path fill="#FFFFFF" d="M91.976,15.861h-4.744c0.125,0.912,0.619,1.371,1.484,1.371c0.592,0,1.1-0.258,1.524-0.772l1.418,0.674
			c-0.924,1.054-1.992,1.579-3.203,1.579c-0.984,0-1.789-0.286-2.418-0.86c-0.627-0.575-0.941-1.309-0.941-2.2
			c0-0.968,0.357-1.798,1.072-2.489c0.715-0.692,1.568-1.036,2.564-1.036c0.998,0,1.795,0.309,2.385,0.927
			C91.704,13.672,91.991,14.608,91.976,15.861z M87.329,14.588h2.82c-0.092-0.683-0.541-1.025-1.346-1.025
			C88.114,13.563,87.622,13.905,87.329,14.588z"/>
	</g>
	<g>
		<path fill="#FFFFFF" d="M92.829,12.933v-0.699h-0.311v-0.148h0.816v0.148h-0.303v0.699H92.829z M93.456,12.933v-0.848h0.32
			l0.182,0.585h0.006l0.182-0.585h0.32v0.848h-0.193v-0.675h-0.006l-0.215,0.675h-0.184l-0.213-0.675h-0.004v0.675H93.456z"/>
	</g>
</g>
<g>
	<g>
		<path fill="#00A0E3" d="M112.87,17.266c-2.77-3.105-6.137-0.746-9.674-1.539c-2.771-0.621-5.074-2.95-5.299-5.894
			c-0.055-0.713-0.02-1.451,0.109-2.171c-0.064,0.112-0.127,0.224-0.188,0.337c-0.008,0.025-0.02,0.048-0.031,0.07
			c-0.014,0.021-0.027,0.046-0.041,0.068c-0.213,0.408-0.406,0.833-0.576,1.272c-0.318,0.946-0.498,2.048-0.396,2.973
			c0.408,3.714,4.07,6.273,7.535,6.888c1.998,0.352,3.787-0.188,5.762-0.046c1.242,0.092,2.549,0.551,3.326,1.573
			c0.836,1.104,2.17,2.912,3.797,2.579l0,0C114.575,22.038,115.394,20.099,112.87,17.266z"/>
		<path fill="#00A0E3" d="M111.474,1.626c-2.701-0.563-5.385-0.208-7.729,0.849c-1.744,0.774-3.467,2.903-3.31,4.97
			c0.313,4.151,4.258,4.282,7.486,4.465c3.248,0.184,5.93,0.98,7.51,4.084c0.604,1.184,0.863,2.393,1.143,3.68
			c0.361,1.65,2.127,2.131,2.869,1.106c0.826-1.267,1.438-2.702,1.766-4.272C122.626,9.723,118.261,3.046,111.474,1.626z"/>
	</g>
	<path fill="#00A0E3" d="M111.976,21.318c-2.125-1.318-3.922,1.205-9.582-0.414c-4.021-1.147-5.512-4.398-6.037-6.184
		c0.346,5.505,4.316,10.336,9.971,11.519c3.35,0.701,6.887-0.01,9.574-1.884C114.563,23.739,113.622,22.338,111.976,21.318z"/>
</g>
<g>
	<path fill="#FFFFFF" d="M4.27,6.317h0.012C4.41,6.146,4.58,6.01,4.792,5.91C5.004,5.81,5.216,5.76,5.428,5.76
		c0.36,0,0.643,0.111,0.849,0.333S6.586,6.6,6.586,6.948c0,0.092-0.008,0.186-0.024,0.281C6.53,7.434,6.469,7.622,6.379,7.794
		c-0.09,0.172-0.205,0.323-0.345,0.453s-0.299,0.229-0.477,0.3c-0.178,0.07-0.371,0.104-0.579,0.104
		c-0.216,0-0.412-0.047-0.588-0.141C4.214,8.417,4.083,8.284,4,8.111H3.988l-0.336,2.101h-0.27l0.696-4.393h0.27L4.27,6.317z
		 M4.915,6.11C4.769,6.177,4.64,6.268,4.528,6.384C4.416,6.5,4.324,6.634,4.252,6.786C4.18,6.938,4.13,7.098,4.102,7.266
		C4.09,7.342,4.083,7.412,4.083,7.476c0,0.276,0.084,0.499,0.252,0.669s0.398,0.255,0.69,0.255c0.16,0,0.311-0.03,0.453-0.093
		c0.142-0.062,0.27-0.146,0.384-0.255c0.114-0.108,0.208-0.233,0.282-0.375c0.074-0.142,0.123-0.289,0.147-0.441
		C6.304,7.16,6.31,7.084,6.31,7.008c0-0.284-0.081-0.521-0.243-0.711C5.905,6.106,5.68,6.012,5.392,6.012
		C5.22,6.012,5.061,6.045,4.915,6.11z"/>
	<path fill="#FFFFFF" d="M9.517,6.099C9.75,6.325,9.868,6.614,9.868,6.966c0,0.08-0.006,0.16-0.018,0.24
		c-0.032,0.2-0.099,0.389-0.201,0.566c-0.102,0.179-0.23,0.333-0.384,0.466C9.11,8.37,8.938,8.472,8.749,8.544
		S8.362,8.651,8.158,8.651c-0.176,0-0.339-0.03-0.489-0.093C7.519,8.497,7.388,8.41,7.275,8.298
		C7.164,8.186,7.078,8.057,7.018,7.911c-0.06-0.146-0.09-0.306-0.09-0.478c0-0.072,0.006-0.146,0.018-0.222
		C6.978,7.016,7.044,6.829,7.146,6.65c0.102-0.178,0.229-0.333,0.381-0.465C7.68,6.054,7.851,5.95,8.041,5.874S8.423,5.76,8.62,5.76
		C8.983,5.76,9.283,5.873,9.517,6.099z M8.092,6.107C7.939,6.172,7.803,6.26,7.681,6.372C7.559,6.483,7.458,6.613,7.377,6.759
		c-0.08,0.146-0.134,0.297-0.162,0.453c-0.008,0.06-0.012,0.122-0.012,0.186c0,0.28,0.091,0.518,0.273,0.711
		c0.182,0.194,0.417,0.291,0.705,0.291c0.168,0,0.33-0.029,0.486-0.09c0.156-0.06,0.298-0.144,0.426-0.252
		C9.222,7.95,9.328,7.823,9.412,7.677C9.496,7.531,9.55,7.376,9.574,7.212c0.012-0.068,0.018-0.136,0.018-0.204
		c0-0.292-0.096-0.531-0.288-0.717C9.112,6.104,8.864,6.012,8.56,6.012C8.399,6.012,8.244,6.044,8.092,6.107z"/>
	<path fill="#FFFFFF" d="M11.182,8.094l1.362-2.424l0.6,2.424l1.32-2.274h0.276l-1.716,2.923l-0.6-2.395l-1.35,2.395l-0.786-2.923
		h0.276L11.182,8.094z"/>
	<path fill="#FFFFFF" d="M15.01,7.229c-0.016,0.084-0.024,0.168-0.024,0.252c0,0.276,0.087,0.498,0.261,0.666
		s0.403,0.252,0.687,0.252c0.212,0,0.411-0.057,0.597-0.171c0.186-0.113,0.347-0.267,0.483-0.459l0.204,0.132
		c-0.164,0.24-0.363,0.426-0.597,0.556s-0.489,0.194-0.765,0.194c-0.352,0-0.629-0.111-0.831-0.336
		c-0.202-0.224-0.303-0.506-0.303-0.846c0-0.088,0.008-0.178,0.024-0.27c0.032-0.196,0.093-0.382,0.183-0.556
		c0.09-0.174,0.206-0.327,0.348-0.459s0.301-0.235,0.477-0.312c0.176-0.076,0.364-0.114,0.564-0.114c0.356,0,0.632,0.11,0.828,0.33
		s0.294,0.5,0.294,0.84c0,0.101-0.008,0.2-0.024,0.3H15.01z M17.188,6.978c0-0.271-0.083-0.501-0.249-0.687
		c-0.166-0.187-0.385-0.279-0.657-0.279c-0.136,0-0.271,0.025-0.405,0.075c-0.134,0.05-0.258,0.12-0.372,0.21
		c-0.114,0.09-0.21,0.194-0.288,0.312c-0.078,0.118-0.133,0.241-0.165,0.369H17.188z"/>
	<path fill="#FFFFFF" d="M18.508,6.18h0.012c0.076-0.132,0.17-0.234,0.282-0.309c0.112-0.074,0.24-0.111,0.384-0.111
		c0.096,0,0.19,0.022,0.282,0.066l-0.18,0.239c-0.06-0.035-0.122-0.054-0.186-0.054c-0.136,0-0.249,0.035-0.339,0.105
		c-0.09,0.069-0.162,0.159-0.216,0.27c-0.054,0.11-0.094,0.223-0.12,0.339C18.4,6.842,18.377,6.97,18.357,7.109
		c0,0.013-0.004,0.034-0.012,0.066l-0.222,1.416h-0.27l0.438-2.772h0.27L18.508,6.18z"/>
	<path fill="#FFFFFF" d="M19.738,7.229c-0.016,0.084-0.024,0.168-0.024,0.252c0,0.276,0.087,0.498,0.261,0.666
		s0.403,0.252,0.687,0.252c0.212,0,0.411-0.057,0.597-0.171c0.186-0.113,0.347-0.267,0.483-0.459l0.204,0.132
		c-0.164,0.24-0.363,0.426-0.597,0.556s-0.489,0.194-0.765,0.194c-0.352,0-0.629-0.111-0.831-0.336
		C19.551,8.092,19.45,7.81,19.45,7.47c0-0.088,0.008-0.178,0.024-0.27c0.032-0.196,0.093-0.382,0.183-0.556
		c0.09-0.174,0.206-0.327,0.348-0.459s0.301-0.235,0.477-0.312c0.176-0.076,0.364-0.114,0.564-0.114c0.356,0,0.632,0.11,0.828,0.33
		s0.294,0.5,0.294,0.84c0,0.101-0.008,0.2-0.024,0.3H19.738z M21.916,6.978c0-0.271-0.083-0.501-0.249-0.687
		C21.5,6.104,21.282,6.012,21.01,6.012c-0.136,0-0.271,0.025-0.405,0.075c-0.134,0.05-0.258,0.12-0.372,0.21
		c-0.114,0.09-0.21,0.194-0.288,0.312c-0.078,0.118-0.133,0.241-0.165,0.369H21.916z"/>
	<path fill="#FFFFFF" d="M24.826,8.094h-0.012c-0.124,0.172-0.293,0.309-0.507,0.408s-0.427,0.149-0.639,0.149
		c-0.36,0-0.643-0.11-0.849-0.333c-0.206-0.222-0.309-0.507-0.309-0.854c0-0.088,0.008-0.18,0.024-0.276
		c0.032-0.199,0.093-0.387,0.183-0.561c0.09-0.174,0.205-0.326,0.345-0.456s0.3-0.231,0.48-0.303
		c0.18-0.072,0.372-0.108,0.576-0.108c0.216,0,0.411,0.047,0.585,0.141c0.174,0.095,0.307,0.228,0.399,0.399h0.012l0.42-2.658h0.27
		l-0.786,4.95h-0.27L24.826,8.094z M24.181,8.304c0.146-0.063,0.276-0.154,0.39-0.27c0.114-0.116,0.206-0.249,0.276-0.399
		c0.07-0.15,0.119-0.309,0.147-0.477c0.012-0.072,0.018-0.143,0.018-0.21c0-0.276-0.085-0.501-0.255-0.676
		c-0.17-0.174-0.401-0.261-0.693-0.261c-0.156,0-0.305,0.032-0.447,0.096c-0.142,0.064-0.27,0.152-0.384,0.265
		c-0.114,0.111-0.208,0.239-0.282,0.381c-0.074,0.142-0.123,0.287-0.147,0.435c-0.012,0.076-0.018,0.15-0.018,0.223
		c0,0.284,0.082,0.52,0.246,0.708c0.164,0.188,0.388,0.281,0.672,0.281C23.875,8.399,24.035,8.368,24.181,8.304z"/>
	<path fill="#FFFFFF" d="M28.588,3.642h0.27L28.438,6.3h0.012c0.14-0.172,0.313-0.305,0.519-0.399
		c0.206-0.094,0.417-0.141,0.633-0.141c0.356,0,0.637,0.106,0.843,0.318s0.309,0.489,0.309,0.834c0,0.092-0.008,0.184-0.024,0.275
		c-0.032,0.204-0.094,0.395-0.186,0.57c-0.092,0.176-0.209,0.332-0.351,0.468c-0.142,0.137-0.304,0.241-0.486,0.315
		c-0.182,0.074-0.375,0.11-0.579,0.11c-0.208,0-0.403-0.05-0.585-0.149c-0.182-0.1-0.309-0.236-0.381-0.408H28.15l-0.078,0.498
		h-0.27L28.588,3.642z M29.641,8.304c0.146-0.063,0.276-0.153,0.39-0.267c0.114-0.114,0.208-0.244,0.282-0.391
		c0.074-0.146,0.123-0.299,0.147-0.459c0.012-0.063,0.018-0.13,0.018-0.197c0-0.272-0.083-0.503-0.249-0.693
		s-0.387-0.285-0.663-0.285c-0.34,0-0.627,0.112-0.861,0.336c-0.234,0.225-0.377,0.506-0.429,0.846
		c-0.012,0.076-0.018,0.154-0.018,0.234c0,0.28,0.081,0.512,0.243,0.696c0.162,0.184,0.387,0.275,0.675,0.275
		C29.34,8.399,29.495,8.368,29.641,8.304z"/>
	<path fill="#FFFFFF" d="M31.096,5.819h0.282l0.786,2.509l1.458-2.509h0.276l-2.556,4.393h-0.276l0.918-1.572L31.096,5.819z"/>
</g>
</svg>
