<?xml version="1.0" encoding="utf-8"?>
<!-- Generator: Adobe Illustrator 22.0.1, SVG Export Plug-In . SVG Version: 6.00 Build 0)  -->
<svg version="1.1" id="Layer_1" xmlns="http://www.w3.org/2000/svg" xmlns:xlink="http://www.w3.org/1999/xlink" x="0px" y="0px"
	 width="28px" height="28px" viewBox="0 0 28 28" style="enable-background:new 0 0 28 28;" xml:space="preserve">
<style type="text/css">
	.st0{fill:#C764AD;}
	.st1{fill:#FFFFFF;}
	.st2{opacity:0.6019;fill:#FFFFFF;}
	.st3{opacity:0.1;enable-background:new    ;}
</style>
<rect class="st0" width="28" height="28"/>
<rect x="4.5" y="7.141" class="st1" width="1" height="7"/>
<circle class="st1" cx="5" cy="7" r="2"/>
<circle class="st1" cx="5" cy="15" r="2"/>
<path class="st2" d="M5.5,21.071v-5.74h-1v5.74C3.639,21.294,3,22.069,3,23c0,1.105,0.895,2,2,2s2-0.895,2-2
	C7,22.069,6.361,21.294,5.5,21.071z"/>
<path class="st1" d="M10,5v4h14V5H10z M18,7.5h-6v-1h6V7.5z"/>
<path class="st1" d="M10,12.779v4h14v-4H10z M18,15.279h-6v-1h6V15.279z"/>
<rect x="10" y="21" class="st2" width="14" height="4"/>
<polyline class="st3" points="24,9 24,25 10,25 12.9,27.9 28,27.9 28,9.6 24,5 24,9 "/>
</svg>
