<?xml version="1.0" encoding="utf-8"?>
<!-- Generator: Adobe Illustrator 21.0.2, SVG Export Plug-In . SVG Version: 6.00 Build 0)  -->
<svg version="1.1" id="Layer_1" xmlns="http://www.w3.org/2000/svg" xmlns:xlink="http://www.w3.org/1999/xlink" x="0px" y="0px"
	 width="28px" height="28px" viewBox="0 0 28 28" style="enable-background:new 0 0 28 28;" xml:space="preserve">
<style type="text/css">
	.st0{fill:#D3D084;}
	.st1{opacity:0.1;enable-background:new    ;}
	.st2{fill:#FFFFFF;}
</style>
<g>
	<rect class="st0" width="28" height="28"/>
	<polygon class="st1" points="21,4 13,19 4,25 7,28 28,28 28,10 	"/>
	<path class="st2" d="M13,4H7v4h6V4z M21,4h-7v9h7V4z M16,14v4l5-4H16z M13,9H7v8h3v-2h5v-1h-2V9z M15,19v-3h-4L15,19z M5,18l-1,1v6
		h9v-6l-1-1H5z M24.7,23.6c-0.8-0.8-4.9-1.8-2.1-4.8c0,0,0.4-2.8-2.1-2.8c-2.4,0-2.1,2.8-2.1,2.8s3.1,2.6-2.1,4.8c0,0-0.8,0.6,0,1.4
		h8.3C24.7,25,25.4,24.4,24.7,23.6z"/>
</g>
</svg>
