<?xml version="1.0" encoding="utf-8"?>
<!-- Generator: Adobe Illustrator 21.0.2, SVG Export Plug-In . SVG Version: 6.00 Build 0)  -->
<svg version="1.1" id="Layer_1" xmlns="http://www.w3.org/2000/svg" xmlns:xlink="http://www.w3.org/1999/xlink" x="0px" y="0px"
	 width="28px" height="28px" viewBox="0 0 28 28" style="enable-background:new 0 0 28 28;" xml:space="preserve">
<style type="text/css">
	.st0{fill:#6E90BA;}
	.st1{opacity:0.1;enable-background:new    ;}
	.st2{fill:#FFFFFF;}
	.st3{opacity:0.5;fill:#FFFFFF;}
	.st4{opacity:0.7;fill:#FFFFFF;}
</style>
<g>
	<rect class="st0" width="28" height="28"/>
	<polygon class="st1" points="22,6 22,22 5,22 11,28 28,28 28,12 	"/>
	<path class="st2" d="M10.7,21H10v-2h0.1c0-0.3-0.1-0.7-0.1-1v-2h0.3c0.1-0.3,0.2-0.7,0.4-1H10v-2h2.1c0.6-0.5,1.2-1,1.9-1.3V10h3v1
		c0.3,0,0.7,0,1,0.1V10h3v2h-0.4c0.5,0.3,1,0.7,1.4,1.1V13v-1v-2V9V7V6h-1h-3h-1h-3h-1h-3H9H6H5v1v2v1v2v1v2v1v2v1v2v1h1h3h1h1.3
		C11,21.7,10.8,21.3,10.7,21z M18,7h3v2h-3V7z M14,7h3v2h-3V7z M10,7h3v2h-3V7z M10,10h3v2h-3V10z M9,21H6v-2h3V21z M9,18H6v-2h3V18
		z M9,15H6v-2h3V15z M9,12H6v-2h3V12z M9,9H6V7h3V9z"/>
	<path class="st3" d="M6,9h3V7H6V9z M10,9h3V7h-3V9z M14,9h3V7h-3V9z M18,7v2h3V7H18z"/>
	<path class="st4" d="M17,12v6h6C23,14.7,20.3,12,17,12z"/>
	<path class="st2" d="M17,18l-5.2,3c1,1.8,3,3,5.2,3c3.3,0,6-2.7,6-6H17z"/>
	<path class="st3" d="M17,18v-6c-3.3,0-6,2.7-6,6c0,1.2,0.4,2.4,1,3.3L17,18z"/>
</g>
</svg>
