<?xml version="1.0" encoding="utf-8"?>
<!-- Generator: Adobe Illustrator 21.0.2, SVG Export Plug-In . SVG Version: 6.00 Build 0)  -->
<svg version="1.1" id="Layer_1" xmlns="http://www.w3.org/2000/svg" xmlns:xlink="http://www.w3.org/1999/xlink" x="0px" y="0px"
	 width="28px" height="28px" viewBox="0 0 28 28" style="enable-background:new 0 0 28 28;" xml:space="preserve">
<style type="text/css">
	.st0{fill:#5EA3B9;}
	.st1{opacity:0.1;}
	.st2{fill:#FFFFFF;}
</style>
<g>
	<rect class="st0" width="28" height="28"/>
	<path class="st1" d="M22,7c0,0,3.3,8.8,0,13c-4.1,5.2-14,2-14,2l6,6h14V13L22,7z"/>
	<path class="st2" d="M18,14c0,2.2-1.8,4-4,4s-4-1.8-4-4s1.8-4,4-4c0.6,0,1.1,0.1,1.7,0.4l0.8-1.8C15.7,8.2,14.9,8,14,8
		c-3.3,0-6,2.7-6,6s2.7,6,6,6s6-2.7,6-6c0-0.9-0.2-1.7-0.5-2.5l-1.8,0.8C17.9,12.9,18,13.4,18,14z M23.1,9.9l-1.8,0.8
		c0.5,1,0.7,2.1,0.7,3.3c0,4.4-3.6,8-8,8s-8-3.6-8-8s3.6-8,8-8c1.2,0,2.3,0.3,3.3,0.7l0.8-1.8C16.9,4.3,15.5,4,14,4
		C8.5,4,4,8.5,4,14s4.5,10,10,10s10-4.5,10-10C24,12.5,23.7,11.1,23.1,9.9z"/>
	<path class="st2" d="M23,8l-3-3l-4.9,7.3C14.8,12.1,14.4,12,14,12c-1.1,0-2,0.9-2,2s0.9,2,2,2s2-0.9,2-2c0-0.4-0.1-0.8-0.3-1.1
		L23,8z"/>
</g>
</svg>
