<?xml version="1.0" encoding="utf-8"?>
<!-- Generator: Adobe Illustrator 21.0.2, SVG Export Plug-In . SVG Version: 6.00 Build 0)  -->
<svg version="1.1" id="Layer_1" xmlns="http://www.w3.org/2000/svg" xmlns:xlink="http://www.w3.org/1999/xlink" x="0px" y="0px"
	 width="28px" height="28px" viewBox="0 0 28 28" style="enable-background:new 0 0 28 28;" xml:space="preserve">
<style type="text/css">
	.st0{fill:#397AA0;}
	.st1{opacity:0.1;enable-background:new    ;}
	.st2{fill:#FFFFFF;}
</style>
<g>
	<rect class="st0" width="28" height="28"/>
	<polygon class="st1" points="23,5 23,24 6,24 10,28 28,28 28,10 	"/>
	<path class="st2" d="M8,11h9l0,0l0,0h3V9H8V11z M21,4H7C5.9,4,5,4.9,5,6v16c0,1.1,0.9,2,2,2h6.4c-0.5-0.3-0.9-0.6-1.3-1H8
		c-1.1,0-2-0.9-2-2V7c0-1.1,0.9-2,2-2h12c1.1,0,2,0.9,2,2v6.1c0.4,0.4,0.7,0.8,1,1.3V6C23,4.9,22.1,4,21,4z M12.1,13H8v2h2.7
		C11,14.3,11.5,13.6,12.1,13z M8,17v2h2.1c0-0.3-0.1-0.7-0.1-1s0-0.7,0.1-1H8z M20.6,24H21c1.1,0,2-0.9,2-2v-0.4
		C22.4,22.6,21.6,23.4,20.6,24z"/>
	<path class="st2" d="M23.7,23.2l-1.9-1.9c0.7-1,1.2-2.1,1.2-3.3c0-3.3-2.8-6-6.1-6S11,14.7,11,17.9c0,3.3,2.7,6.1,6,6.1
		c1.2,0,2.3-0.5,3.3-1.2l1.9,1.9c0.2,0.2,0.5,0.3,0.8,0.3c0.6,0,1.1-0.5,1.1-1.1C24,23.6,23.9,23.3,23.7,23.2z M17,22
		c-2.2,0-3.8-1.8-4-4s1.8-4,4-4s4,1.8,4,4S19.2,22,17,22z M16,19h2v-4h-2V19z M16,21h2v-1h-2V21z"/>
</g>
</svg>
