<?xml version="1.0" encoding="utf-8"?>
<!-- Generator: Adobe Illustrator 21.0.2, SVG Export Plug-In . SVG Version: 6.00 Build 0)  -->
<svg version="1.1" id="Layer_1" xmlns="http://www.w3.org/2000/svg" xmlns:xlink="http://www.w3.org/1999/xlink" x="0px" y="0px"
	 width="28px" height="28px" viewBox="0 0 28 28" style="enable-background:new 0 0 28 28;" xml:space="preserve">
<style type="text/css">
	.st0{fill:#DA9252;}
	.st1{opacity:0.1;}
	.st2{fill:#FFFFFF;}
</style>
<g>
	<rect class="st0" width="28" height="28"/>
	<polygon class="st1" points="23,5 23,24 6,24 10,28 28,28 28,10 	"/>
	<path class="st2" d="M10.8,13H8v2h1.6C9.9,14.3,10.3,13.6,10.8,13z M8,11h5.1c1.1-0.6,2.5-1,3.9-1c1.1,0,2.1,0.2,3,0.6V9H8V11z
		 M21,4H7C5.9,4,5,4.9,5,6v16c0,1.1,0.9,2,2,2h4.7c-0.3-0.3-0.7-0.6-1-1H8c-1.1,0-2-0.9-2-2V7c0-1.1,0.9-2,2-2h12c1.1,0,2,0.9,2,2
		v4.8c0.4,0.3,0.7,0.6,1,1V6C23,4.9,22.1,4,21,4z M8,17v2h1.1C9,18.7,9,18.3,9,18s0-0.7,0.1-1H8z"/>
	<path class="st2" d="M20,22c0,0-2.1,1-3,1c-2.4,0-5-2.6-5-5s2.5-5.2,4.9-5.1C19.3,13,22,15.6,22,18l1.8-0.1c0-3.8-3.1-6.9-6.9-6.9
		S10,14.1,10,17.9s3.1,6.9,6.9,6.9c1.4,0,3.9-1,5.1-1.8l1,1v-4h-4L20,22z M16,17h-2v2h2h2v-2v-3h-2V17z"/>
</g>
</svg>
