<?xml version="1.0" encoding="utf-8"?>
<!-- Generator: Adobe Illustrator 21.0.2, SVG Export Plug-In . SVG Version: 6.00 Build 0)  -->
<svg version="1.1" id="Layer_1" xmlns="http://www.w3.org/2000/svg" xmlns:xlink="http://www.w3.org/1999/xlink" x="0px" y="0px"
	 width="28px" height="28px" viewBox="0 0 28 28" style="enable-background:new 0 0 28 28;" xml:space="preserve">
<style type="text/css">
	.st0{fill:#FF796B;}
	.st1{opacity:0.1;}
	.st2{fill:#FFFFFF;}
	.st3{opacity:0.5;fill:#FFFFFF;}
</style>
<g>
	<rect class="st0" width="28" height="28"/>
	<polygon class="st1" points="25,3 25,25 3,25 6,28 28,28 28,6 	"/>
	<path class="st2" d="M22,9h-1v2h1V9z M8,9H7v2h1V9z M15,25h10V15H15V25z M16,16h8v8h-8V16z M3,3v10h22V3H3z M24,12H4V4h20V12z
		 M3,25h10V15H3V25z M4,16h8v8H4V16z M20,5h-1v6h1V5z M12,6h-1v5h1V6z M10,7H9v4h1V7z M14,5h-1v6h1V5z M16,6h-1v5h1V6z M18,8h-1v3h1
		V8z"/>
	<path class="st3" d="M17,17v6h6v-6H17z M5,23h6v-6H5V23z"/>
</g>
</svg>
