<?xml version="1.0" encoding="utf-8"?>
<!-- Generator: Adobe Illustrator 21.0.2, SVG Export Plug-In . SVG Version: 6.00 Build 0)  -->
<svg version="1.1" id="Layer_1" xmlns="http://www.w3.org/2000/svg" xmlns:xlink="http://www.w3.org/1999/xlink" x="0px" y="0px"
	 width="28px" height="28px" viewBox="0 0 28 28" style="enable-background:new 0 0 28 28;" xml:space="preserve">
<style type="text/css">
	.st0{fill:#618C8E;}
	.st1{opacity:0.1;enable-background:new    ;}
	.st2{fill:#FFFFFF;}
</style>
<g>
	<rect class="st0" width="28" height="28"/>
	<polygon class="st1" points="22,8 18,12 20,14 24,14 24,23 11,23 11,19 10,18 6,22 12,28 28,28 28,14 	"/>
	<path class="st2" d="M21,12l1-1l-2-2l2-1h-4v4l1-2L21,12z M6,18v4l1-2l2,2l1-1l-2-2l2-1H6z M9,5H5v3h4V5z M7,13h4v-1H9V9H5v6h2V13z
		 M15,5h-5v6h5V5z M23,14h-3h-1h-3h-1v-2h-3v2h-1H8v1h3v2v2v1v2v1h1h3h1h3h1h3h1v-1v-2v-1v-2v-3H23z M15,22h-3v-2h3V22z M15,19h-3
		v-2h3V19z M19,22h-3v-2h3V22z M19,19h-3v-2h3V19z M23,22h-3v-2h3V22z M23,19h-3v-2h3V19z"/>
</g>
</svg>
