<?xml version="1.0" encoding="utf-8"?>
<!-- Generator: Adobe Illustrator 21.0.2, SVG Export Plug-In . SVG Version: 6.00 Build 0)  -->
<svg version="1.1" id="Layer_1" xmlns="http://www.w3.org/2000/svg" xmlns:xlink="http://www.w3.org/1999/xlink" x="0px" y="0px"
	 width="28px" height="28px" viewBox="0 0 28 28" style="enable-background:new 0 0 28 28;" xml:space="preserve">
<style type="text/css">
	.st0{fill:#BF614F;}
	.st1{opacity:0.1;}
	.st2{fill:#FFFFFF;}
	.st3{opacity:0.5;fill:#FFFFFF;enable-background:new    ;}
</style>
<g>
	<rect class="st0" width="28" height="28"/>
	<path class="st1" d="M24,11v13H12l4,4h12V15L24,11z M13,5l0.4,4.4L12,12l-2.4,1.3L6,14l4,4l8-8L13,5z"/>
	<path class="st2" d="M14,8.5c0-3-2.5-5.5-5.5-5.5S3,5.5,3,8.5S5.5,14,8.5,14S14,11.5,14,8.5z M8.5,13C6,13,4,11,4,8.5S6,4,8.5,4
		S13,6,13,8.5S11,13,8.5,13z M5.7,7.4L9,10l1-2L6.3,6.6L5.7,7.4z M20,11v4h-4v5h-4v4h12V11H20z M15,23h-2v-2h2V23z M19,23h-2v-7h2
		V23z M23,23h-2V12h2V23z"/>
	<path class="st3" d="M23.6,3.6l-20,20l0.7,0.7l20-20L23.6,3.6z M8.5,13C11,13,13,11,13,8.5S11,4,8.5,4S4,6,4,8.5S6,13,8.5,13z
		 M8.5,5C10.4,5,12,6.6,12,8.5S10.4,12,8.5,12S5,10.4,5,8.5S6.6,5,8.5,5z M21,23h2V12h-2V23z M13,23h2v-2h-2V23z"/>
</g>
</svg>
