<?xml version="1.0" encoding="utf-8"?>
<!-- Generator: Adobe Illustrator 21.0.2, SVG Export Plug-In . SVG Version: 6.00 Build 0)  -->
<svg version="1.1" id="Layer_1" xmlns="http://www.w3.org/2000/svg" xmlns:xlink="http://www.w3.org/1999/xlink" x="0px" y="0px"
	 width="28px" height="28px" viewBox="0 0 28 28" style="enable-background:new 0 0 28 28;" xml:space="preserve">
<style type="text/css">
	.st0{fill:#77B0D4;}
	.st1{opacity:0.1;enable-background:new    ;}
	.st2{fill:#FFFFFF;}
	.st3{opacity:0.5;fill:#FFFFFF;enable-background:new    ;}
</style>
<g>
	<rect class="st0" width="28" height="28"/>
	<polygon class="st1" points="22,6 22,22 6,22 12,28 28,28 28,12 	"/>
	<path class="st2" d="M21,6h-4h-1h-4h-1H7H6v1v2v1v2v1v2v1v2v1v2v1h1h4h1h4h1h4h1v-1v-2v-1v-2v-1v-2v-1v-2V9V7V6H21z M16,7v2h-4V7
		H16z M12,15v-2h4v2H12z M16,16v2h-4v-2H16z M12,12v-2h4v2H12z M7,7h4v2H7V7z M7,10h4v2H7V10z M7,13h4v2H7V13z M7,16h4v2H7V16z
		 M7,21v-2h4v2H7z M12,21v-2h4v2H12z M21,21h-4v-2h4V21z M21,18h-4v-2h4V18z M21,15h-4v-2h4V15z M21,12h-4v-2h4V12z M21,9h-4V7h4V9z
		"/>
	<path class="st3" d="M7,8v1h4V8V7H7V8z M12,8v1h4V8V7h-4V8z M17,7v1v1h4V8V7H17z"/>
</g>
</svg>
