<?xml version="1.0" encoding="utf-8"?>
<!-- Generator: Adobe Illustrator 21.0.2, SVG Export Plug-In . SVG Version: 6.00 Build 0)  -->
<svg version="1.1" id="Layer_1" xmlns="http://www.w3.org/2000/svg" xmlns:xlink="http://www.w3.org/1999/xlink" x="0px" y="0px"
	 width="28px" height="28px" viewBox="0 0 28 28" style="enable-background:new 0 0 28 28;" xml:space="preserve">
<style type="text/css">
	.st0{fill:#7FC9C7;}
	.st1{opacity:0.1;}
	.st2{fill:#FFFFFF;}
</style>
<g>
	<rect class="st0" width="28" height="28"/>
	<polygon class="st1" points="23,6 23,22 6,22 12,28 28,28 28,11 	"/>
	<path class="st2" d="M9,6v1h14V6H9z M9,12h14v-1H9V12z M14,17h9v-1h-9V17z M14,22h9v-1h-9V22z M8,5H5v3h3V5z M10,18h3v-3h-3V18z
		 M10,23h3v-3h-3V23z M7,13h1v-3H7V8H6v2H5v3h1v9h1h2v-1H7v-4h2v-1H7V13z"/>
</g>
</svg>
