<?xml version="1.0" encoding="utf-8"?>
<!-- Generator: Adobe Illustrator 21.0.2, SVG Export Plug-In . SVG Version: 6.00 Build 0)  -->
<svg version="1.1" id="Layer_1" xmlns="http://www.w3.org/2000/svg" xmlns:xlink="http://www.w3.org/1999/xlink" x="0px" y="0px"
	 width="28px" height="28px" viewBox="0 0 28 28" style="enable-background:new 0 0 28 28;" xml:space="preserve">
<style type="text/css">
	.st0{fill:#5EA3B9;}
	.st1{opacity:0.1;enable-background:new    ;}
	.st2{fill:#FFFFFF;}
</style>
<g id="Layer_4">
	<rect class="st0" width="28" height="28"/>
	<path class="st1" d="M28,9.6L21.4,3l-1.2,1.8L19,9.3L13.9,14l-1.4,1.4l3.3,3.3C15.2,18.9,14.6,19,14,19c-1.4,0-2.6-0.6-3.5-1.5
		l-0.7,0.7l4,4l-6.8-1.2l6.9,6.9H28V9.6z"/>
	<path class="st2" d="M19.4,11.4c0.4,0.8,0.6,1.7,0.6,2.6c0,0.9-0.2,1.8-0.6,2.5l-1-0.3c0.3-0.7,0.5-1.4,0.5-2.2
		c0-0.8-0.2-1.5-0.5-2.1L19.4,11.4z M14,19c-2.8,0-5-2.2-5-5s2.2-5,5-5c0.8,0,1.5,0.2,2.2,0.5l0.3-1C15.7,8.2,14.9,8,14,8
		c-3.3,0-6,2.7-6,6s2.7,6,6,6c1,0,1.9-0.2,2.7-0.6l-0.4-1C15.6,18.8,14.9,19,14,19z M17.1,22.7L17,21.4c-0.9,0.4-1.9,0.6-3,0.6
		c-4.4,0-8-3.6-8-8s3.6-8,8-8c1,0,1.9,0.2,2.7,0.5l0.1-1.3l0.4-0.7C16.2,4.2,15.1,4,14,4C8.5,4,4,8.5,4,14s4.5,10,10,10
		c1.2,0,2.4-0.2,3.5-0.6L17.1,22.7z M21.5,16.7l1.3,0.1l0.7,0.4c0.3-1,0.5-2.1,0.5-3.2c0-1.2-0.2-2.4-0.6-3.5l-0.6,0.4L21.4,11
		c0.4,0.9,0.6,1.9,0.6,3C22,15,21.8,15.9,21.5,16.7z M18.4,17.7L15.7,15c0.2-0.3,0.3-0.6,0.3-1s-0.1-0.7-0.3-1l2.7-2.7l3.7-0.9
		L25,6.6l-3.2-0.3L21.4,3l-2.8,2.8l-0.9,3.7L15,12.3c-0.3-0.2-0.6-0.3-1-0.3c-1.1,0-2,0.9-2,2s0.9,2,2,2c0.4,0,0.7-0.1,1-0.3
		l2.7,2.7l0.9,3.7l2.8,2.8l0.3-3.2l3.2-0.3l-2.8-2.8L18.4,17.7z"/>
</g>
</svg>
