<?xml version="1.0" encoding="utf-8"?>
<!-- Generator: Adobe Illustrator 21.0.2, SVG Export Plug-In . SVG Version: 6.00 Build 0)  -->
<svg version="1.1" id="Layer_1" xmlns="http://www.w3.org/2000/svg" xmlns:xlink="http://www.w3.org/1999/xlink" x="0px" y="0px"
	 width="28px" height="28px" viewBox="0 0 28 28" style="enable-background:new 0 0 28 28;" xml:space="preserve">
<style type="text/css">
	.st0{fill:#1F6894;}
	.st1{opacity:0.1;}
	.st2{fill:#FFFFFF;}
</style>
<g>
	<rect class="st0" width="28" height="28"/>
	<polygon class="st1" points="25,12 22,11 22,14 20,19 17,21 13,22 11,22 12,25 15,28 28,28 28,15 	"/>
	<path class="st2" d="M3,7h4V3H3V7z M9,3v4h16V3H9z M3,25h4V9H3V25z M19,12h2c0,0-0.2,4.7-2.4,6.6C16.3,20.7,12,21,12,21v-2l-4,3
		l4,3v-2c0,0,5.1-0.3,8-3c2.5-2.3,3-8,3-8h2l-3-4L19,12z"/>
</g>
</svg>
