<?xml version="1.0" encoding="utf-8"?>
<!-- Generator: Adobe Illustrator 21.0.2, SVG Export Plug-In . SVG Version: 6.00 Build 0)  -->
<svg version="1.1" id="Layer_1" xmlns="http://www.w3.org/2000/svg" xmlns:xlink="http://www.w3.org/1999/xlink" x="0px" y="0px"
	 width="28px" height="28px" viewBox="0 0 28 28" style="enable-background:new 0 0 28 28;" xml:space="preserve">
<style type="text/css">
	.st0{fill:#B6C76C;}
	.st1{opacity:0.1;}
	.st2{fill:#FFFFFF;}
</style>
<g>
	<rect class="st0" width="28" height="28"/>
	<path class="st1" d="M22,7c0,0,3.3,8.8,0,13c-4.1,5.2-14,2-14,2l6,6h14V13L22,7z"/>
	<path class="st2" d="M24.1,12c-0.3-1.3-0.8-2.5-1.5-3.7C19.7,4,14,2.7,9.6,5.1l5.3,7.8L24.1,12z M7.8,6.3C3.9,9.6,3,15.3,6,19.6
		c0.8,1.2,1.9,2.2,3,2.9l4.1-8.4L7.8,6.3z M14.9,15l-4,8.4c2.9,1.1,6.3,0.8,9-1.1c2.8-1.9,4.4-5.1,4.4-8.3L14.9,15z"/>
</g>
</svg>
