<?xml version="1.0" encoding="utf-8"?>
<!-- Generator: Adobe Illustrator 21.0.2, SVG Export Plug-In . SVG Version: 6.00 Build 0)  -->
<svg version="1.1" id="Layer_1" xmlns="http://www.w3.org/2000/svg" xmlns:xlink="http://www.w3.org/1999/xlink" x="0px" y="0px"
	 width="28px" height="28px" viewBox="0 0 28 28" style="enable-background:new 0 0 28 28;" xml:space="preserve">
<style type="text/css">
	.st0{fill:#DCA46A;}
	.st1{opacity:0.1;}
	.st2{fill:#FFFFFF;}
	.st3{opacity:0.5;fill:#FFFFFF;}
</style>
<g>
	<rect class="st0" width="28" height="28"/>
	<polygon class="st1" points="24,4 23,23 4,24 8,28 28,28 28,8 	"/>
	<path class="st2" d="M5,6H4v1v16v1h1h16h1v-1V7V6h-1H5z M21,23H5V7h16V23z M23,4H6v1h17v17h1V5V4H23z M10,21h1h3h1h3h1v-1V10V9h-1
		h-3h-1v1v2h-3h-1v1v4H7H6v1v2v1h1H10z M15,10h3v10h-3V10z M11,13h3v7h-3V13z M7,18h3v2H7V18z"/>
	<path class="st3" d="M15,10v10h3V10H15z M7,20h3v-2H7V20z"/>
</g>
</svg>
