<?xml version="1.0" encoding="utf-8"?>
<!-- Generator: Adobe Illustrator 21.0.2, SVG Export Plug-In . SVG Version: 6.00 Build 0)  -->
<svg version="1.1" id="Layer_1" xmlns="http://www.w3.org/2000/svg" xmlns:xlink="http://www.w3.org/1999/xlink" x="0px" y="0px"
	 width="28px" height="28px" viewBox="0 0 28 28" style="enable-background:new 0 0 28 28;" xml:space="preserve">
<style type="text/css">
	.st0{fill:#8585CA;}
	.st1{opacity:0.1;}
	.st2{fill:#FFFFFF;}
</style>
<g>
	<rect class="st0" width="28" height="28"/>
	<polygon class="st1" points="23,4 23,24 5,24 9,28 28,28 28,9 	"/>
	<polygon class="st2" points="5,9 11,9 11,4 	"/>
	<path class="st2" d="M8.4,20.8l3-1L21,10l-2-2l-9.6,9.8L8.4,20.8z M10,18h1v1h-1V18z M22,4H12h-1v1v4H6H5v1v13v1h1h16h1v-1V5V4H22z
		 M22,23H6V10h5h1V9V5h10V23z"/>
</g>
</svg>
