<?xml version="1.0" encoding="utf-8"?>
<!-- Generator: Adobe Illustrator 21.0.2, SVG Export Plug-In . SVG Version: 6.00 Build 0)  -->
<svg version="1.1" id="Layer_1" xmlns="http://www.w3.org/2000/svg" xmlns:xlink="http://www.w3.org/1999/xlink" x="0px" y="0px"
	 width="28px" height="28px" viewBox="0 0 28 28" style="enable-background:new 0 0 28 28;" xml:space="preserve">
<style type="text/css">
	.st0{fill:#8585CA;}
	.st1{opacity:0.1;}
	.st2{fill:#FFFFFF;}
</style>
<g>
	<rect class="st0" width="28" height="28"/>
	<polygon class="st1" points="21,4 21,24 4,24 8,28 28,28 28,11 	"/>
	<polygon class="st2" points="4,9 10,9 10,4 	"/>
	<path class="st2" d="M8,19l2.6-0.8L19,9.8L17.2,8l-8.4,8.4L8,19z M9.4,16.6h0.9v0.9H9.4V16.6z M21,14V5V4h-0.9h-9.4H10v1v4H4.9H4v1
		v13v1h0.9H20h1v-1v-2.1c2.2-0.2,3-1,3-3.6C24,14.6,21.4,14.1,21,14z M20.1,19c-0.4,0-0.9,0-1.4,0H16v-2l-5,3.7l5,2.3v-2h3
		c0.4,0,0.7,0,1.1,0v2H16H4.9V10h4.7H11V9V5h9v14H20.1z M21,18.9v-2.3c0.2,0.1,0.7,0.4,0.7,0.8C21.8,18.3,21.5,18.7,21,18.9z"/>
</g>
</svg>
