<?xml version="1.0" encoding="utf-8"?>
<!-- Generator: Adobe Illustrator 21.0.2, SVG Export Plug-In . SVG Version: 6.00 Build 0)  -->
<svg version="1.1" id="Layer_1" xmlns="http://www.w3.org/2000/svg" xmlns:xlink="http://www.w3.org/1999/xlink" x="0px" y="0px"
	 width="28px" height="28px" viewBox="0 0 28 28" style="enable-background:new 0 0 28 28;" xml:space="preserve">
<style type="text/css">
	.st0{fill:#5AA16D;}
	.st1{opacity:0.1;}
	.st2{fill:#FFFFFF;}
</style>
<g id="Territories">
	<rect class="st0" width="28" height="28"/>
	<polygon class="st1" points="28,28 28,22 22,16 15,21 4.2,23 10.1,28 26.8,28 	"/>
	<path class="st2" d="M11.9,14.5c0,0,1.6,2.1,3.1,4.5c0,0,1.5-2.5,3.1-4.5h0c1.2-1.1,1.9-2.8,1.9-4.6C20,6.6,17.8,4,15,4
		s-5,2.6-5,5.9C10,11.8,10.8,13.5,11.9,14.5L11.9,14.5z M15,6.5c1.4,0,2.5,1.1,2.5,2.5s-1.1,2.5-2.5,2.5s-2.5-1.1-2.5-2.5
		S13.6,6.5,15,6.5z M22,16h-2l-5,5l-5-5H6l-1.8,7H24L22,16z"/>
</g>
</svg>
