<?xml version="1.0" encoding="utf-8"?>
<!-- Generator: Adobe Illustrator 21.0.2, SVG Export Plug-In . SVG Version: 6.00 Build 0)  -->
<svg version="1.1" id="Layer_1" xmlns="http://www.w3.org/2000/svg" xmlns:xlink="http://www.w3.org/1999/xlink" x="0px" y="0px"
	 width="28px" height="28px" viewBox="0 0 28 28" style="enable-background:new 0 0 28 28;" xml:space="preserve">
<style type="text/css">
	.st0{fill:#458945;}
	.st1{opacity:0.1;enable-background:new    ;}
	.st2{fill:#FFFFFF;}
</style>
<g id="V4">
	<rect class="st0" width="28" height="28"/>
	<path id="Shadow" class="st1" d="M28,23l-2-2c0,0-3.1,2.4-10.5,2.4S1.9,21.1,1.9,21.1L9,28h19V23z"/>
	<path id="Pin_4_" class="st2" d="M22.2,11.1c0-3.5-2.3-6.2-5.5-6.2s-5.5,2.8-5.5,6.2c0,2,0.8,3.7,2,4.8l0,0c0,0,1.8,2.2,3.3,4.7
		c0,0,1.7-2.6,3.4-4.7l0,0C21.4,14.9,22.2,13.1,22.2,11.1z M16.7,12.8c-1.6,0-2.7-1.2-2.7-2.6s1.2-2.6,2.8-2.6s2.7,1.2,2.7,2.6
		C19.5,11.7,18.1,12.8,16.7,12.8z"/>
	<polygon id="Arrow" class="st2" points="11.7,18.3 7.9,21.4 7.3,16.5 	"/>
	<path id="Circle_1_" class="st2" d="M21.2,19.6C22.9,20,24,20.4,24,21c0,1.1-4.5,2-10,2S4,22.1,4,21c0-0.7,1.8-1.3,4.6-1.7
		c0-0.1-0.1-0.2-0.1-0.4s0.1-0.5,0.3-0.7c-4,0.5-6.8,1.5-6.8,2.7c0,1.7,5.4,3,12,3s12-1.3,12-3c0-1-1.8-1.8-4.7-2.4"/>
</g>
</svg>
