<?xml version="1.0" encoding="utf-8"?>
<!-- Generator: Adobe Illustrator 21.0.2, SVG Export Plug-In . SVG Version: 6.00 Build 0)  -->
<svg version="1.1" id="Layer_1" xmlns="http://www.w3.org/2000/svg" xmlns:xlink="http://www.w3.org/1999/xlink" x="0px" y="0px"
	 width="28px" height="28px" viewBox="0 0 28 28" style="enable-background:new 0 0 28 28;" xml:space="preserve">
<style type="text/css">
	.st0{fill:#4266A5;}
	.st1{opacity:0.2;enable-background:new    ;}
	.st2{fill:#FFFFFF;}
</style>
<rect class="st0" width="28" height="28"/>
<polygon id="Shadow" class="st1" points="4,23 22.2,23.9 23,4 28,9 28,28 9,28 "/>
<path id="Icon" class="st2" d="M21.9,3.9h-16c-1.1,0-2,0.9-2,2v16c0,1.1,0.9,2,2,2h16c1.1,0,2-0.9,2-2v-16C23.9,4.8,23,3.9,21.9,3.9
	z M6.9,7.9h2v-2h1v2h2v1h-2v2h-1v-2h-2V7.9z M11.9,18.9h-5v-1h5V18.9z M14.9,13.1v1v8.8h-1v-9h-9v-1h9v-8h1V13.1z M21.9,14.9h-5v-1
	h5V14.9z M21.9,12.9h-5v-1h5V12.9z"/>
</svg>
